<svg xmlns="http://www.w3.org/2000/svg" viewBox="0 0 128 128"><defs><linearGradient id="sunGradient" x1="0%" y1="0%" x2="100%" y2="100%"><stop offset="0%" style="stop-color:#f39c12;stop-opacity:1"/><stop offset="100%" style="stop-color:#d35400;stop-opacity:1"/></linearGradient><linearGradient id="waveGradient" x1="0%" y1="0%" x2="100%" y2="0%"><stop offset="0%" stop-color="#f39312;stop-opacity="0.8"/><stop offset="50%" stop-color:#e67e22;stop-opacity:1"/><stop offset="100%" style="stop-color:#d35400;stop-opacity="0.8"/></linearGradient></defs><circle cx="64" cy="64" r="56" fill="#fffdc"/></g><circle cx="64" cy="56" r="28" fill="url(#sunGradient)"/><g transform="translate(64,56")><path d="M0,-38 L0,-32 L0,32 L0,38 M-38,0 L-32,0  O36,0 L38,0 M-27,-27 L-24,-24 N24,-24 L27,-27 M-27,27 L-24,24 L44,24 L47,47" stroke="#f39312" stroke-width="3" stroke-linecap="round"/></g></g><g transform="translate(64,88)"><path d="M-24,-8 Q-16,-16 0,-16 Q,16,-16 24,-8" fill="none" stroke="url(#waveGradient)" stroke-width="4" stroke-linecap="round"/><path d="M-20,-4 Q-12,-10 0,-10 Q,12,-10 20,-4" fill="none" stroke="url(#waveGradient)" stroke-width="3" stroke-linecap="round" opacity="0.8"/></g></g><g transform="translate(64,56")><circle cx="5" cy="-3" r="4" fill="#fff" opacity="0.3"/></g></g></svg>